<svg xmlns="http://www.w3.org/2000/svg" width="200" height="75"><path fill="#3F894A" d="M24.819 52.086c-.075-1.002-.354-2.099-1.461-3.109l-.005-.004-.137-.122-.016-.013c-1.532-1.399-2.756-4.088-2.756-6.943 0-3.98 1.763-15.292 2.144-15.292.302 0 .308 5.456.108 10.585-.139 3.562.388 4.965 1.238 4.965 1.132 0 1.313-3.585 1.43-7.615.096-3.318.386-7.91.618-7.935h.001c.362 0 .661 4.563.758 7.889.12 4.13.406 7.559 1.352 7.559.993 0 1.295-1.586 1.225-5.107-.086-4.298-.087-10.341.215-10.341.381 0 1.674 3.971 1.986 15.292.079 2.853-1.224 5.543-2.757 6.943l-.016.013-.137.122-.005.004c-1.108 1.01-1.386 2.107-1.462 3.109-.12 1.6-.174 3.65-.168 5.957l8.726 8.726c.122-3.803.11-7.39-.058-10.098-.063-1.012-.218-2.187-.395-3.124-.055-.299-.247-.575-.247-.812v-32.965c0-2.812 2.633-4.141 5.055 2.031 2.422 6.172 1.746 28.122 1.746 29.683 0 .331-.287.722-.758 1.107-.188.122-.352.245-.51.371-1.451 1.164-1.658 2.506-1.734 3.709-.181 2.912-.327 6.84-.365 10.961l12.026-12.026c-.017-1.413-.056-2.684-.122-3.743-.025-.406-.126-.819-.203-1.254-.218-1.232-1.743-2.241-2.625-3.127-1.714-1.721-2.816-4.614-2.816-7.876 0-5.297 2.936-12.002 6.558-12.002s6.559 6.704 6.559 12.002c0 3.262-1.102 6.156-2.816 7.876-.883.886-2.408 1.895-2.626 3.127-.077.436-.178.848-.203 1.254-.04.637-.069 1.355-.091 2.129l16.801-16.802-31.377-31.377-31.377 31.377 18.853 18.853c-.021-1.493-.072-2.837-.156-3.957z"/><g fill="#333"><path d="M84.654 25.138h7.344c.96 0 1.932.078 2.916.234.983.156 1.866.48 2.646.972.779.492 1.415 1.176 1.907 2.052.492.876.738 2.034.738 3.474 0 1.296-.384 2.424-1.152 3.384-.768.96-1.907 1.597-3.42 1.908v.072c.84.072 1.608.27 2.305.594.695.324 1.296.755 1.8 1.295s.894 1.183 1.17 1.926c.275.744.414 1.561.414 2.448 0 1.465-.282 2.658-.846 3.582-.564.925-1.272 1.65-2.124 2.178-.853.528-1.776.889-2.772 1.08-.996.192-1.926.288-2.79.288h-8.136v-25.487zm2.376 11.015h4.932c1.225 0 2.22-.149 2.988-.45.768-.3 1.368-.666 1.8-1.098s.72-.894.864-1.386c.144-.492.216-.942.216-1.35 0-.888-.15-1.626-.45-2.214-.3-.587-.702-1.056-1.206-1.404-.504-.348-1.092-.594-1.764-.738s-1.381-.216-2.124-.216h-5.256v8.856zm0 12.312h5.436c1.392 0 2.514-.167 3.366-.504.852-.336 1.506-.756 1.962-1.26s.762-1.038.918-1.602c.156-.564.234-1.074.234-1.53 0-.937-.181-1.74-.54-2.412-.36-.672-.828-1.218-1.404-1.638s-1.23-.726-1.962-.918c-.732-.192-1.471-.288-2.214-.288h-5.796v10.152zM105.915 38.673c0-.312-.013-.689-.036-1.133-.024-.444-.042-.894-.054-1.35-.013-.456-.03-.882-.054-1.278s-.036-.702-.036-.918h2.16c.023.624.041 1.224.054 1.8.012.576.042.948.09 1.116.552-.984 1.26-1.788 2.124-2.412.864-.624 1.92-.936 3.168-.936.216 0 .426.018.63.054l.63.126-.252 2.124c-.288-.096-.563-.144-.828-.144-.936 0-1.745.15-2.43.45-.684.3-1.248.714-1.692 1.242-.444.528-.773 1.146-.989 1.854s-.324 1.47-.324 2.286v9.071h-2.16v-11.952zM131.694 45.945c0 .312.012.69.036 1.134.023.444.041.895.054 1.351.012.456.03.882.054 1.277.024.396.036.702.036.918h-2.16c-.023-.624-.042-1.224-.054-1.8-.013-.576-.042-.948-.09-1.116h-.108c-.432.913-1.151 1.698-2.159 2.358-1.009.66-2.185.99-3.528.99-1.296 0-2.358-.204-3.187-.612-.827-.408-1.476-.941-1.943-1.603-.468-.659-.787-1.422-.954-2.285-.168-.864-.252-1.752-.252-2.664v-9.9h2.16v9.792c0 .672.06 1.326.18 1.962.12.637.329 1.206.63 1.71.3.504.72.906 1.26 1.206.54.301 1.242.45 2.106.45.792 0 1.542-.138 2.25-.414.707-.275 1.319-.695 1.836-1.26.516-.563.924-1.272 1.224-2.124s.45-1.854.45-3.006v-8.316h2.16v11.952zM136.95 38.673c0-.312-.013-.689-.036-1.133-.024-.444-.042-.894-.054-1.35-.013-.456-.03-.882-.054-1.278s-.036-.702-.036-.918h2.16c.023.624.041 1.224.054 1.8.012.576.042.948.09 1.116h.108c.432-.912 1.151-1.698 2.16-2.358 1.008-.66 2.184-.99 3.527-.99 1.296 0 2.352.204 3.168.612.815.409 1.458.942 1.926 1.602.469.661.792 1.422.973 2.286.18.863.27 1.752.27 2.664v9.899h-2.16v-9.792c0-.672-.06-1.325-.18-1.962-.12-.636-.33-1.206-.63-1.709-.301-.504-.72-.906-1.26-1.206-.54-.3-1.242-.45-2.106-.45-.792 0-1.542.139-2.25.414-.708.276-1.32.696-1.836 1.26-.517.564-.924 1.271-1.224 2.124-.301.852-.45 1.854-.45 3.006v8.315h-2.16v-11.952zM170.186 48.177c-.815.984-1.74 1.711-2.771 2.179-1.032.468-2.148.702-3.348.702-1.272 0-2.448-.217-3.528-.648s-2.004-1.038-2.772-1.818c-.768-.779-1.367-1.703-1.8-2.771-.432-1.067-.647-2.237-.647-3.51s.216-2.442.647-3.511c.433-1.067 1.032-1.991 1.8-2.771.769-.779 1.692-1.386 2.772-1.818s2.256-.648 3.528-.648c1.224 0 2.357.252 3.401.756s1.974 1.212 2.79 2.124l-1.728 1.296c-.625-.696-1.309-1.242-2.053-1.638s-1.548-.594-2.411-.594c-1.009 0-1.921.18-2.736.54-.816.36-1.512.846-2.088 1.458s-1.015 1.332-1.314 2.16-.45 1.71-.45 2.646c0 .936.15 1.817.45 2.646s.738 1.548 1.314 2.16 1.271 1.098 2.088 1.458c.815.36 1.728.54 2.736.54.911 0 1.746-.21 2.502-.63s1.409-.978 1.962-1.674l1.656 1.366zM173.191 23.41h2.16v13.5h.072c.432-.912 1.151-1.698 2.16-2.358 1.008-.66 2.184-.99 3.527-.99 1.296 0 2.352.204 3.168.612.815.409 1.458.942 1.926 1.602.469.661.792 1.422.973 2.286.18.863.27 1.752.27 2.664v9.899h-2.16v-9.792c0-.672-.06-1.325-.18-1.962-.12-.636-.33-1.206-.63-1.709-.301-.504-.72-.906-1.26-1.206-.54-.3-1.242-.45-2.106-.45-.792 0-1.542.139-2.25.414-.708.276-1.32.696-1.836 1.26-.517.564-.924 1.271-1.224 2.124-.301.852-.45 1.854-.45 3.006v8.315h-2.16v-27.215z"/></g></svg>