<svg xmlns="http://www.w3.org/2000/svg" width="256" height="256"><rect x="65" y="68" fill="#7C7C7C" width="127" height="124"/><rect x="83.392" y="22.163" transform="matrix(-.707 .707 -.707 -.707 266.929 23.975)" fill="#86AD8A" width="90.215" height="90.215"/><path fill="#fff" d="M117.601 167.637c3.788-11.191 5.795-45.647 4.728-62.795-.128-2.057-.333-4.445-.692-6.351-.112-.607-.244-1.168-.391-1.651v-67.02c0-5.717 5.242-8.419 10.166 4.128 4.925 12.547 3.495 57.175 3.495 60.348 0 .673-.611 1.469-1.57 2.25-.383.247-.73.499-1.051.754-2.949 2.366-3.379 5.095-3.533 7.542-1.067 17.148-1.554 51.604 2.234 62.795 4.438 13.112-4.004 14.759-6.691 14.759-2.691-.001-11.133-1.648-6.695-14.759z"/><path fill="#fff" d="M103.019 47.413c-.472.049-1.062 9.387-1.257 16.131-.238 8.194-.607 15.482-2.908 15.482-1.728 0-2.8-2.853-2.517-10.094.407-10.427.395-21.519-.219-21.519-.774 0-4.358 22.999-4.358 31.09 0 5.803 2.487 11.269 5.603 14.115l.033.027.278.247.01.008c2.252 2.053 2.819 4.283 2.971 6.32 1.286 17.143-1.128 59.614-5.678 70.804-5.33 13.108 4.811 14.759 8.042 14.759 3.227 0 13.368-1.651 8.037-14.759-4.55-11.191-6.96-53.661-5.678-70.804.153-2.037.719-4.267 2.971-6.32l.01-.008.278-.247.033-.027c3.116-2.845 5.764-8.314 5.604-14.115-.635-23.017-3.263-31.09-4.037-31.09-.614 0-.613 12.286-.438 21.024.143 7.158-.471 10.383-2.49 10.383-1.923 0-2.504-6.972-2.748-15.368-.196-6.762-.804-16.039-1.54-16.039"/><path fill="#fff" d="M154.075 179.591c-2.546 0-10.532-1.562-6.332-13.967 3.585-10.59 5.483-50.779 4.474-67.007-.051-.826-.256-1.664-.413-2.55-.443-2.504-3.543-4.555-5.338-6.356-3.486-3.498-5.725-9.38-5.725-16.013 0-10.77 5.97-24.4 13.334-24.4s13.334 13.63 13.334 24.4c0 6.633-2.24 12.515-5.725 16.013-1.795 1.801-4.895 3.852-5.338 6.356-.157.886-.361 1.724-.413 2.55-1.01 16.227.889 56.416 4.474 67.007 4.2 12.406-3.786 13.967-6.332 13.967z"/><polyline fill="#CECCAE" points="65,68 65,192 192,192"/><polygon fill="#3F894A" points="65,191.835 65,253 192,253 192,191.835 192,66.938"/><g stroke="#fff" stroke-width=".5" stroke-miterlimit="10" fill="none"><line x1="191.658" y1="82.55" x2="190.946" y2="83.253"/><line stroke-dasharray="2.02,2.02" x1="189.509" y1="84.672" x2="66.629" y2="206.035"/><line x1="65.91" y1="206.745" x2="65.199" y2="207.448"/></g><g fill="#fff"><path d="M85.353 211.117h6.328c.827 0 1.665.067 2.513.201.848.135 1.608.414 2.28.838.672.424 1.22 1.014 1.644 1.768.424.756.636 1.753.636 2.994 0 1.116-.331 2.089-.993 2.916-.662.827-1.644 1.376-2.947 1.645v.062c.724.062 1.385.232 1.985.512.6.279 1.117.651 1.551 1.117.434.465.77 1.019 1.008 1.659.238.642.357 1.345.357 2.109 0 1.262-.243 2.291-.729 3.087-.486.797-1.097 1.422-1.83 1.877-.734.455-1.531.766-2.389.931-.858.166-1.66.248-2.404.248h-7.011v-21.964zm2.047 9.492h4.25c1.055 0 1.913-.129 2.575-.388.662-.259 1.179-.574 1.551-.946.373-.372.621-.771.745-1.194s.186-.812.186-1.163c0-.765-.129-1.401-.388-1.908-.259-.506-.605-.909-1.039-1.21-.435-.299-.941-.512-1.52-.636-.579-.124-1.189-.186-1.831-.186h-4.529v7.631zm0 10.61h4.684c1.199 0 2.166-.145 2.9-.435.734-.289 1.298-.651 1.691-1.085.393-.435.656-.895.791-1.381.134-.485.202-.926.202-1.318 0-.807-.155-1.499-.465-2.078s-.713-1.05-1.21-1.412c-.496-.361-1.06-.625-1.69-.791-.631-.165-1.267-.248-1.908-.248h-4.995v8.748zM103.73 222.781c0-.269-.011-.595-.031-.978-.021-.383-.036-.771-.046-1.163-.011-.393-.026-.76-.047-1.102-.021-.341-.031-.604-.031-.791h1.861c.021.538.036 1.055.046 1.551.01.497.036.817.078.962.476-.848 1.086-1.54 1.83-2.078.745-.538 1.654-.807 2.73-.807.186 0 .367.016.543.047l.543.108-.217 1.83c-.248-.082-.486-.124-.713-.124-.807 0-1.504.129-2.094.388-.589.259-1.075.615-1.458 1.07s-.667.987-.853 1.598-.279 1.267-.279 1.97v7.817h-1.861v-10.298zM126 229.047c0 .27.01.595.031.978.021.383.036.771.046 1.163.01.394.026.761.047 1.102.02.341.031.604.031.791h-1.861c-.021-.537-.036-1.055-.046-1.551-.011-.497-.036-.817-.078-.962h-.093c-.373.786-.993 1.463-1.861 2.032-.869.568-1.882.853-3.04.853-1.117 0-2.032-.176-2.746-.527s-1.272-.812-1.675-1.38c-.403-.569-.678-1.226-.822-1.971-.145-.744-.217-1.509-.217-2.295v-8.531h1.861v8.438c0 .58.051 1.144.155 1.691s.284 1.039.543 1.474c.258.434.621.78 1.086 1.039s1.07.388 1.815.388c.682 0 1.329-.119 1.938-.356.61-.238 1.137-.6 1.582-1.086s.796-1.097 1.055-1.83c.258-.734.388-1.598.388-2.591v-7.166h1.861v10.297zM130.584 222.781c0-.269-.01-.595-.029-.978-.021-.383-.037-.771-.047-1.163-.012-.393-.027-.76-.047-1.102-.021-.341-.031-.604-.031-.791h1.861c.02.538.035 1.055.047 1.551.01.497.035.817.076.962h.094c.373-.785.992-1.463 1.861-2.032.869-.568 1.883-.853 3.041-.853 1.115 0 2.025.176 2.729.527s1.258.812 1.66 1.381c.404.568.684 1.225.838 1.97.154.744.232 1.51.232 2.295v8.531h-1.861v-8.438c0-.579-.051-1.143-.154-1.691-.104-.547-.285-1.039-.543-1.473-.26-.435-.621-.781-1.086-1.04-.465-.258-1.07-.388-1.814-.388-.684 0-1.33.119-1.939.357-.609.237-1.137.6-1.582 1.085-.445.486-.797 1.097-1.055 1.831-.26.734-.389 1.598-.389 2.59v7.166h-1.861v-10.297zM159.28 230.971c-.703.849-1.5 1.474-2.389 1.877-.89.403-1.852.604-2.885.604-1.097 0-2.11-.186-3.041-.559-.931-.372-1.727-.894-2.389-1.566-.662-.672-1.179-1.468-1.551-2.389-.372-.92-.559-1.928-.559-3.024s.187-2.104.559-3.024.889-1.717 1.551-2.389 1.458-1.194 2.389-1.566c.931-.373 1.944-.559 3.041-.559 1.055 0 2.031.217 2.931.651.9.435 1.701 1.045 2.404 1.83l-1.489 1.117c-.537-.6-1.127-1.07-1.768-1.412-.642-.341-1.334-.512-2.078-.512-.869 0-1.655.155-2.358.466-.703.31-1.303.729-1.799 1.256s-.874 1.148-1.133 1.861c-.259.714-.388 1.474-.388 2.28s.129 1.566.388 2.28c.259.713.637 1.334 1.133 1.861s1.096.946 1.799 1.256c.703.311 1.489.466 2.358.466.785 0 1.504-.181 2.155-.543.651-.361 1.215-.843 1.69-1.442l1.429 1.18zM161.925 209.628h1.861v11.633h.062c.372-.785.992-1.463 1.861-2.032.868-.568 1.882-.853 3.04-.853 1.116 0 2.026.176 2.729.527s1.257.812 1.66 1.381c.403.568.683 1.225.837 1.97.155.744.233 1.51.233 2.295v8.531h-1.861v-8.438c0-.579-.052-1.143-.155-1.691-.104-.547-.285-1.039-.543-1.473-.259-.435-.62-.781-1.086-1.04-.465-.258-1.07-.388-1.814-.388-.683 0-1.329.119-1.939.357-.609.237-1.137.6-1.582 1.085-.444.486-.796 1.097-1.055 1.831s-.388 1.598-.388 2.59v7.166h-1.861v-23.451z"/></g></svg>